<?xml version="1.0" encoding="UTF-8" standalone="no"?>
<!-- Created with Inkscape (http://www.inkscape.org/) -->

<svg
   xmlns:dc="http://purl.org/dc/elements/1.1/"
   xmlns:cc="http://creativecommons.org/ns#"
   xmlns:rdf="http://www.w3.org/1999/02/22-rdf-syntax-ns#"
   xmlns:svg="http://www.w3.org/2000/svg"
   xmlns="http://www.w3.org/2000/svg"
   xmlns:sodipodi="http://sodipodi.sourceforge.net/DTD/sodipodi-0.dtd"
   xmlns:inkscape="http://www.inkscape.org/namespaces/inkscape"
   id="svg2"
   version="1.1"
   inkscape:version="0.48.4 r9939"
   width="215.35001"
   height="205.55"
   xml:space="preserve"
   sodipodi:docname="msv_logo.svg"><metadata
     id="metadata8"><rdf:RDF><cc:Work
         rdf:about=""><dc:format>image/svg+xml</dc:format><dc:type
           rdf:resource="http://purl.org/dc/dcmitype/StillImage" /><dc:title /></cc:Work></rdf:RDF></metadata><defs
     id="defs6"><clipPath
       clipPathUnits="userSpaceOnUse"
       id="clipPath16"><path
         d="m 0,232.441 252.283,0 L 252.283,0 0,0 0,232.441 z"
         id="path18"
         inkscape:connector-curvature="0" /></clipPath></defs><sodipodi:namedview
     pagecolor="#ffffff"
     bordercolor="#666666"
     borderopacity="1"
     objecttolerance="10"
     gridtolerance="10"
     guidetolerance="10"
     inkscape:pageopacity="0"
     inkscape:pageshadow="2"
     inkscape:window-width="896"
     inkscape:window-height="556"
     id="namedview4"
     showgrid="false"
     inkscape:zoom="0.81224916"
     inkscape:cx="157.67688"
     inkscape:cy="145.27562"
     inkscape:window-x="397"
     inkscape:window-y="104"
     inkscape:window-maximized="0"
     inkscape:current-layer="g10" /><g
     id="g10"
     inkscape:groupmode="layer"
     inkscape:label="MS_LOGO"
     transform="matrix(1.25,0,0,-1.25,0,205.55036)"><g
       id="g12"
       transform="matrix(0.65415654,0,0,0.65415654,3.6253387,3.8043386)"><g
         id="g14"
         clip-path="url(#clipPath16)"><g
           id="g20"
           transform="translate(118.9756,168.2883)"><path
             d="m 0,0 c 0,0 25.817,31.63 52.808,31.98 26.992,0.351 50.869,0.873 69.556,-9.296 0,0 -1.038,-76.094 0,-106.881 1.038,-30.787 0,-62.294 0,-62.294 0,0 -17.389,8.823 -48.793,8.823 -31.404,0 -46.876,-8.865 -63.277,-19.294 0,0 -7.302,-1.304 -10.294,1.303 -2.992,2.608 -3.251,13.298 -44.517,15.905 -41.267,2.608 -63.976,-9.041 -63.976,-9.041 0,0 5.407,152.011 1.947,171.827 0,0 57.79,12.862 72.67,5.214 C -18.996,20.598 0,0 0,0"
             style="fill:#2b2b2a;fill-opacity:1;fill-rule:nonzero;stroke:none"
             id="path22"
             inkscape:connector-curvature="0" /></g><g
           id="g24"
           transform="translate(118.9896,165.9442)"><path
             d="m 0,0 c 0,0 24.868,30.328 50.868,30.664 26,0.336 49,0.836 67,-8.914 0,0 -1,-72.961 0,-102.48 1,-29.52 0,-59.73 0,-59.73 0,0 -16.75,8.46 -47,8.46 -30.25,0 -45.154,-8.5 -60.952,-18.5 0,0 -7.034,-1.25 -9.916,1.25 -2.882,2.5 -3.132,12.75 -42.882,15.25 -39.75,2.5 -61.625,-8.669 -61.625,-8.669 0,0 5.208,145.752 1.875,164.752 0,0 55.667,12.334 70,5 C -18.298,19.75 0,0 0,0"
             style="fill:#ffffff;fill-opacity:1;fill-rule:nonzero;stroke:none"
             id="path26"
             inkscape:connector-curvature="0" /></g><g
           id="g28"
           transform="translate(26.7335,143.7248)"><path
             d="m 0,0 c 0.755,0.081 1.239,0.26 1.453,0.539 0.214,0.277 0.321,0.922 0.321,1.933 l 0,7.791 c 0,0.693 -0.104,1.144 -0.312,1.354 -0.208,0.209 -0.681,0.332 -1.417,0.37 l 0,0.355 3.599,0 4.192,-9.56 4.091,9.56 3.628,0 0,-0.355 c -0.677,-0.05 -1.114,-0.18 -1.31,-0.389 -0.196,-0.209 -0.294,-0.654 -0.294,-1.335 l 0,-8.531 c 0,-0.699 0.098,-1.147 0.294,-1.343 C 14.441,0.192 14.878,0.062 15.555,0 l 0,-0.356 -5.108,0 0,0.356 c 0.737,0.062 1.196,0.201 1.378,0.417 0.181,0.215 0.271,0.728 0.271,1.54 l 0,8.616 -4.675,-10.929 -0.25,0 -4.595,10.479 0,-7.651 C 2.576,1.423 2.722,0.74 3.013,0.422 3.203,0.215 3.628,0.075 4.288,0 l 0,-0.356 L 0,-0.356 0,0 z"
             style="fill:#2b2b2a;fill-opacity:1;fill-rule:nonzero;stroke:none"
             id="path30"
             inkscape:connector-curvature="0" /></g><g
           id="g32"
           transform="translate(50.8926,148.2983)"><path
             d="M 0,0 -2.092,5.286 -4.194,0 0,0 z m -7.862,-4.93 0,0.357 c 0.469,0.055 0.821,0.241 1.056,0.557 0.235,0.315 0.637,1.179 1.207,2.591 l 3.803,9.419 0.364,0 4.548,-10.881 C 3.42,-3.608 3.662,-4.053 3.843,-4.224 4.024,-4.395 4.329,-4.512 4.757,-4.573 l 0,-0.357 -4.643,0 0,0.357 c 0.534,0.049 0.877,0.11 1.032,0.181 0.154,0.072 0.232,0.247 0.232,0.527 0,0.094 -0.03,0.258 -0.09,0.495 -0.059,0.236 -0.142,0.485 -0.249,0.746 l -0.731,1.846 -4.811,0 C -4.977,-2.034 -5.26,-2.8 -5.352,-3.076 c -0.093,-0.277 -0.139,-0.497 -0.139,-0.658 0,-0.324 0.125,-0.547 0.374,-0.672 0.155,-0.075 0.445,-0.13 0.872,-0.167 l 0,-0.357 -3.617,0 z"
             style="fill:#2b2b2a;fill-opacity:1;fill-rule:nonzero;stroke:none"
             id="path34"
             inkscape:connector-curvature="0" /></g><g
           id="g36"
           transform="translate(64.7883,155.983)"><path
             d="m 0,0 c 0.683,-0.206 1.076,-0.309 1.177,-0.309 0.261,0 0.447,0.053 0.556,0.159 0.11,0.106 0.204,0.259 0.281,0.459 l 0.402,0 0.142,-4.039 -0.419,0 c -0.374,0.931 -0.76,1.624 -1.159,2.081 -0.719,0.799 -1.655,1.199 -2.808,1.199 -1.17,0 -2.2,-0.467 -3.088,-1.401 -0.889,-0.934 -1.333,-2.473 -1.333,-4.616 0,-1.768 0.443,-3.149 1.328,-4.142 0.886,-0.993 1.979,-1.49 3.281,-1.49 0.219,0 0.478,0.022 0.775,0.066 0.297,0.043 0.58,0.112 0.847,0.205 0.434,0.15 0.704,0.279 0.811,0.388 0.107,0.109 0.161,0.27 0.161,0.482 l 0,3.058 c 0,0.741 -0.1,1.203 -0.299,1.385 -0.199,0.182 -0.634,0.295 -1.306,0.339 l 0,0.356 4.653,0 0,-0.356 C 3.55,-6.207 3.25,-6.285 3.102,-6.41 2.852,-6.61 2.728,-7.023 2.728,-7.647 l 0,-3.777 c 0,-0.225 -0.525,-0.525 -1.574,-0.9 -1.049,-0.375 -2.058,-0.562 -3.026,-0.562 -1.783,0 -3.286,0.547 -4.511,1.64 -1.349,1.206 -2.023,2.824 -2.023,4.855 0,1.786 0.538,3.317 1.613,4.592 1.183,1.406 2.752,2.108 4.707,2.108 C -1.379,0.309 -0.683,0.206 0,0"
             style="fill:#2b2b2a;fill-opacity:1;fill-rule:nonzero;stroke:none"
             id="path38"
             inkscape:connector-curvature="0" /></g><g
           id="g40"
           transform="translate(77.2606,148.2983)"><path
             d="M 0,0 -2.092,5.286 -4.194,0 0,0 z m -7.862,-4.93 0,0.357 c 0.469,0.055 0.821,0.241 1.056,0.557 0.235,0.315 0.637,1.179 1.207,2.591 l 3.803,9.419 0.364,0 4.548,-10.881 C 3.42,-3.608 3.662,-4.053 3.843,-4.224 4.024,-4.395 4.329,-4.512 4.757,-4.573 l 0,-0.357 -4.643,0 0,0.357 c 0.534,0.049 0.877,0.11 1.032,0.181 0.154,0.072 0.232,0.247 0.232,0.527 0,0.094 -0.03,0.258 -0.09,0.495 -0.059,0.236 -0.142,0.485 -0.249,0.746 l -0.731,1.846 -4.811,0 C -4.977,-2.034 -5.26,-2.8 -5.352,-3.076 c -0.093,-0.277 -0.139,-0.497 -0.139,-0.658 0,-0.324 0.125,-0.547 0.374,-0.672 0.155,-0.075 0.445,-0.13 0.872,-0.167 l 0,-0.357 -3.617,0 z"
             style="fill:#2b2b2a;fill-opacity:1;fill-rule:nonzero;stroke:none"
             id="path42"
             inkscape:connector-curvature="0" /></g><g
           id="g44"
           transform="translate(82.4382,143.5842)"><path
             d="m 0,0 8.005,11.752 -4.208,0 C 2.739,11.752 1.988,11.474 1.542,10.918 1.275,10.587 1.064,10.015 0.909,9.203 l -0.472,0 0.365,3.28 9.636,0 0,-0.215 -8.004,-11.752 4.736,0 c 1.075,0 1.858,0.265 2.351,0.796 0.306,0.337 0.582,0.953 0.828,1.846 l 0.428,0 L 10.322,-0.215 0,-0.215 0,0 z"
             style="fill:#2b2b2a;fill-opacity:1;fill-rule:nonzero;stroke:none"
             id="path46"
             inkscape:connector-curvature="0" /></g><g
           id="g48"
           transform="translate(173.5896,143.5842)"><path
             d="m 0,0 8.005,11.752 -4.208,0 C 2.739,11.752 1.988,11.474 1.542,10.918 1.275,10.587 1.064,10.015 0.909,9.203 l -0.472,0 0.365,3.28 9.636,0 0,-0.215 -8.004,-11.752 4.736,0 c 1.075,0 1.859,0.265 2.351,0.796 0.306,0.337 0.582,0.953 0.828,1.846 l 0.428,0 L 10.323,-0.215 0,-0.215 0,0 z"
             style="fill:#2b2b2a;fill-opacity:1;fill-rule:nonzero;stroke:none"
             id="path50"
             inkscape:connector-curvature="0" /></g><g
           id="g52"
           transform="translate(184.8217,143.7248)"><path
             d="m 0,0 c 0.671,0.075 1.107,0.2 1.305,0.377 0.2,0.178 0.299,0.626 0.299,1.347 l 0,8.538 c 0,0.681 -0.098,1.126 -0.294,1.335 -0.196,0.21 -0.632,0.34 -1.31,0.39 l 0,0.355 9.698,0 0.063,-2.745 -0.464,0 C 9.143,10.442 8.911,10.99 8.602,11.239 8.293,11.487 7.604,11.612 6.534,11.612 l -2.486,0 C 3.78,11.612 3.615,11.566 3.552,11.476 3.49,11.385 3.458,11.215 3.458,10.965 l 0,-4.283 2.817,0 c 0.779,0 1.275,0.121 1.489,0.364 0.214,0.242 0.386,0.733 0.517,1.473 l 0.428,0 0,-4.433 -0.428,0 C 8.144,4.83 7.969,5.322 7.755,5.562 7.541,5.803 7.048,5.923 6.275,5.923 l -2.817,0 0,-4.752 C 3.458,0.79 3.573,0.565 3.802,0.497 4.031,0.428 4.717,0.394 5.86,0.394 c 1.238,0 2.152,0.142 2.74,0.426 0.59,0.284 1.119,0.973 1.588,2.066 l 0.509,0 L 9.868,-0.356 0,-0.356 0,0 z"
             style="fill:#2b2b2a;fill-opacity:1;fill-rule:nonzero;stroke:none"
             id="path54"
             inkscape:connector-curvature="0" /></g><g
           id="g56"
           transform="translate(195.973,143.7248)"><path
             d="m 0,0 c 0.754,0.081 1.239,0.26 1.453,0.539 0.214,0.277 0.321,0.922 0.321,1.933 l 0,8.456 -0.25,0.309 C 1.256,11.568 1.029,11.773 0.842,11.851 0.655,11.929 0.374,11.974 0,11.987 l 0,0.355 3.115,0 7.047,-9.183 0,6.379 c 0,1.049 -0.148,1.732 -0.446,2.048 -0.196,0.205 -0.63,0.338 -1.301,0.401 l 0,0.355 4.287,0 0,-0.355 c -0.695,-0.076 -1.159,-0.253 -1.39,-0.535 -0.232,-0.281 -0.348,-0.924 -0.348,-1.93 l 0,-10.103 -0.312,0 -8.076,10.524 0,-7.471 C 2.576,1.423 2.721,0.74 3.013,0.421 3.203,0.215 3.628,0.075 4.288,0 l 0,-0.356 L 0,-0.356 0,0 z"
             style="fill:#2b2b2a;fill-opacity:1;fill-rule:nonzero;stroke:none"
             id="path58"
             inkscape:connector-curvature="0" /></g><g
           id="g60"
           transform="translate(212.6974,145.2385)"><path
             d="m 0,0 c 0.756,-0.965 1.684,-1.448 2.784,-1.448 1.077,0 1.998,0.47 2.763,1.41 0.764,0.941 1.147,2.445 1.147,4.513 0,2.093 -0.387,3.605 -1.161,4.536 C 4.76,9.942 3.843,10.407 2.784,10.407 1.689,10.407 0.763,9.925 0.005,8.959 -0.754,7.994 -1.133,6.499 -1.133,4.475 -1.133,2.457 -0.756,0.965 0,0 m -1.365,9.405 c 1.123,1.13 2.505,1.696 4.145,1.696 1.646,0 3.031,-0.569 4.154,-1.706 1.218,-1.231 1.827,-2.871 1.827,-4.92 0,-2.081 -0.63,-3.736 -1.889,-4.967 -1.129,-1.1 -2.494,-1.65 -4.092,-1.65 -1.712,0 -3.132,0.609 -4.261,1.828 -1.147,1.243 -1.72,2.839 -1.72,4.789 0,2.049 0.612,3.692 1.836,4.93"
             style="fill:#2b2b2a;fill-opacity:1;fill-rule:nonzero;stroke:none"
             id="path62"
             inkscape:connector-curvature="0" /></g><g
           id="g64"
           transform="translate(32.3756,109.2789)"><path
             d="m 0,0 c 0.309,-0.862 0.67,-1.55 1.085,-2.062 0.725,-0.893 1.624,-1.34 2.698,-1.34 0.581,0 1.084,0.194 1.509,0.581 0.423,0.388 0.636,0.928 0.636,1.621 0,0.625 -0.214,1.169 -0.64,1.631 C 5.009,0.725 4.421,1.165 3.526,1.753 L 1.968,2.774 C 1.5,3.086 1.126,3.402 0.846,3.721 0.33,4.327 0.071,4.995 0.071,5.726 c 0,0.969 0.306,1.775 0.918,2.418 0.612,0.644 1.424,0.965 2.434,0.965 0.416,0 0.916,-0.107 1.502,-0.323 0.585,-0.216 0.92,-0.323 1.003,-0.323 0.225,0 0.381,0.056 0.468,0.168 0.086,0.113 0.153,0.272 0.2,0.478 l 0.374,0 0.402,-4.086 -0.437,0 C 6.638,6.254 6.161,7.113 5.504,7.601 4.848,8.088 4.198,8.332 3.556,8.332 3.057,8.332 2.622,8.177 2.25,7.868 1.879,7.558 1.693,7.129 1.693,6.579 1.693,6.085 1.836,5.663 2.121,5.314 2.405,4.958 2.847,4.586 3.447,4.199 L 5.05,3.158 C 6.054,2.508 6.762,1.912 7.173,1.368 7.579,0.818 7.782,0.169 7.782,-0.581 7.782,-1.587 7.421,-2.427 6.699,-3.102 5.977,-3.777 5.054,-4.114 3.931,-4.114 3.366,-4.114 2.776,-4.002 2.162,-3.777 1.546,-3.552 1.194,-3.44 1.105,-3.44 0.891,-3.44 0.747,-3.508 0.673,-3.646 0.599,-3.783 0.55,-3.93 0.526,-4.086 l -0.401,0 L -0.419,0 0,0 z"
             style="fill:#2b2b2a;fill-opacity:1;fill-rule:nonzero;stroke:none"
             id="path66"
             inkscape:connector-curvature="0" /></g><g
           id="g68"
           transform="translate(41.7083,118.1163)"><path
             d="m 0,0 10.323,0 0.098,-3.261 -0.437,0 C 9.77,-2.237 9.498,-1.57 9.168,-1.26 8.839,-0.951 8.145,-0.797 7.087,-0.797 l -1.016,0 0,-9.821 c 0,-0.74 0.11,-1.198 0.33,-1.375 0.22,-0.177 0.701,-0.293 1.444,-0.349 l 0,-0.357 -5.322,0 0,0.357 c 0.772,0.061 1.254,0.195 1.444,0.401 0.19,0.205 0.285,0.721 0.285,1.548 l 0,9.596 -1.025,0 C 2.217,-0.797 1.529,-0.95 1.164,-1.256 0.798,-1.562 0.523,-2.23 0.339,-3.261 l -0.446,0 L 0,0 z"
             style="fill:#2b2b2a;fill-opacity:1;fill-rule:nonzero;stroke:none"
             id="path70"
             inkscape:connector-curvature="0" /></g><g
           id="g72"
           transform="translate(55.928,107.2875)"><path
             d="m 0,0 c 0.756,-0.965 1.684,-1.448 2.784,-1.448 1.077,0 1.998,0.47 2.763,1.41 0.764,0.941 1.147,2.445 1.147,4.513 0,2.093 -0.387,3.605 -1.161,4.536 C 4.76,9.942 3.843,10.407 2.784,10.407 1.689,10.407 0.763,9.925 0.005,8.959 -0.754,7.994 -1.133,6.499 -1.133,4.475 -1.133,2.457 -0.756,0.965 0,0 m -1.365,9.405 c 1.123,1.13 2.505,1.696 4.145,1.696 1.646,0 3.031,-0.569 4.154,-1.706 1.218,-1.231 1.827,-2.871 1.827,-4.92 0,-2.081 -0.63,-3.736 -1.889,-4.967 -1.129,-1.1 -2.494,-1.65 -4.092,-1.65 -1.712,0 -3.132,0.609 -4.261,1.828 -1.147,1.243 -1.72,2.839 -1.72,4.789 0,2.049 0.612,3.692 1.836,4.93"
             style="fill:#2b2b2a;fill-opacity:1;fill-rule:nonzero;stroke:none"
             id="path74"
             inkscape:connector-curvature="0" /></g><g
           id="g76"
           transform="translate(182.545,112.4278)"><path
             d="m 0,0 c 0.968,0.418 1.453,1.204 1.453,2.357 0,1.11 -0.434,1.868 -1.302,2.273 -0.464,0.218 -1.078,0.328 -1.845,0.328 -0.517,0 -0.833,-0.04 -0.949,-0.117 C -2.759,4.763 -2.817,4.58 -2.817,4.294 l 0,-4.725 C -1.504,-0.381 -0.565,-0.237 0,0 m -6.24,-6.654 c 0.701,0.068 1.138,0.211 1.31,0.429 0.172,0.218 0.259,0.724 0.259,1.52 l 0,8.313 c 0,0.675 -0.097,1.117 -0.29,1.326 -0.193,0.209 -0.619,0.342 -1.279,0.399 l 0,0.356 5.054,0 c 1.052,0 1.928,-0.141 2.63,-0.421 C 2.775,4.737 3.44,3.761 3.44,2.338 3.44,1.384 3.145,0.651 2.554,0.139 1.962,-0.372 1.158,-0.709 0.142,-0.871 l 3.762,-4.872 c 0.232,-0.298 0.464,-0.514 0.695,-0.651 0.232,-0.136 0.529,-0.223 0.892,-0.26 l 0,-0.356 -2.941,0 -4.566,5.913 -0.801,-0.046 0,-3.783 c 0,-0.71 0.102,-1.16 0.308,-1.35 0.204,-0.19 0.651,-0.316 1.341,-0.378 l 0,-0.356 -5.072,0 0,0.356 z"
             style="fill:#2b2b2a;fill-opacity:1;fill-rule:nonzero;stroke:none"
             id="path78"
             inkscape:connector-curvature="0" /></g><g
           id="g80"
           transform="translate(188.571,105.7738)"><path
             d="m 0,0 c 0.743,0.056 1.225,0.172 1.444,0.35 0.22,0.177 0.33,0.635 0.33,1.374 l 0,8.538 c 0,0.706 -0.11,1.161 -0.33,1.364 C 1.225,11.829 0.743,11.949 0,11.987 l 0,0.355 5.402,0 0,-0.355 C 4.659,11.949 4.178,11.829 3.958,11.626 3.738,11.423 3.628,10.968 3.628,10.262 l 0,-8.538 C 3.628,0.985 3.738,0.527 3.958,0.35 4.178,0.172 4.659,0.056 5.402,0 l 0,-0.356 L 0,-0.356 0,0 z"
             style="fill:#2b2b2a;fill-opacity:1;fill-rule:nonzero;stroke:none"
             id="path82"
             inkscape:connector-curvature="0" /></g><g
           id="g84"
           transform="translate(203.1457,118.0321)"><path
             d="m 0,0 c 0.695,-0.206 1.084,-0.309 1.168,-0.309 0.172,0 0.335,0.05 0.49,0.15 0.154,0.099 0.261,0.256 0.321,0.468 l 0.383,0 0.169,-4.311 -0.418,0 c -0.245,0.856 -0.562,1.547 -0.955,2.072 -0.748,0.987 -1.755,1.48 -3.022,1.48 -1.277,0 -2.322,-0.531 -3.133,-1.593 -0.811,-1.062 -1.216,-2.524 -1.216,-4.386 0,-1.712 0.426,-3.079 1.278,-4.1 0.853,-1.022 1.934,-1.533 3.241,-1.533 0.945,0 1.815,0.238 2.612,0.713 0.458,0.269 0.96,0.674 1.507,1.218 l 0.338,-0.356 c -0.404,-0.537 -0.906,-1.009 -1.507,-1.415 -1.022,-0.687 -2.13,-1.031 -3.324,-1.031 -1.961,0 -3.518,0.659 -4.671,1.977 -1.065,1.219 -1.596,2.74 -1.596,4.565 0,1.868 0.561,3.436 1.684,4.704 1.183,1.331 2.722,1.996 4.618,1.996 C -1.373,0.309 -0.695,0.206 0,0"
             style="fill:#2b2b2a;fill-opacity:1;fill-rule:nonzero;stroke:none"
             id="path86"
             inkscape:connector-curvature="0" /></g><g
           id="g88"
           transform="translate(210.2783,107.2875)"><path
             d="m 0,0 c 0.756,-0.965 1.684,-1.448 2.784,-1.448 1.077,0 1.998,0.47 2.763,1.41 0.764,0.941 1.147,2.445 1.147,4.513 0,2.093 -0.387,3.605 -1.161,4.536 C 4.76,9.942 3.843,10.407 2.784,10.407 1.689,10.407 0.763,9.925 0.005,8.959 -0.754,7.994 -1.133,6.499 -1.133,4.475 -1.133,2.457 -0.756,0.965 0,0 m -1.365,9.405 c 1.123,1.13 2.505,1.696 4.145,1.696 1.646,0 3.031,-0.569 4.154,-1.706 1.218,-1.231 1.827,-2.871 1.827,-4.92 0,-2.081 -0.63,-3.736 -1.889,-4.967 -1.129,-1.1 -2.494,-1.65 -4.092,-1.65 -1.712,0 -3.132,0.609 -4.261,1.828 -1.147,1.243 -1.72,2.839 -1.72,4.789 0,2.049 0.612,3.692 1.836,4.93"
             style="fill:#2b2b2a;fill-opacity:1;fill-rule:nonzero;stroke:none"
             id="path90"
             inkscape:connector-curvature="0" /></g><g
           id="g92"
           transform="translate(35.1275,71.4477)"><path
             d="m 0,0 0,-0.328 c -0.457,-0.006 -0.768,-0.038 -0.934,-0.095 -0.291,-0.102 -0.436,-0.308 -0.436,-0.619 0,-0.159 0.051,-0.381 0.155,-0.666 0.104,-0.286 0.298,-0.76 0.581,-1.422 l 2.858,-6.682 2.594,7.233 c 0.115,0.32 0.201,0.591 0.261,0.813 0.059,0.222 0.089,0.403 0.089,0.543 0,0.375 -0.151,0.628 -0.454,0.762 -0.178,0.076 -0.471,0.121 -0.881,0.133 l 0,0.328 3.735,0 0,-0.328 C 7.181,-0.384 6.896,-0.493 6.711,-0.656 6.432,-0.9 6.156,-1.39 5.883,-2.127 l -4.043,-10.797 -0.275,0 -4.512,10.55 c -0.38,0.895 -0.685,1.452 -0.913,1.671 -0.23,0.219 -0.564,0.344 -1.004,0.375 L -4.864,0 0,0 z"
             style="fill:#2b2b2a;fill-opacity:1;fill-rule:nonzero;stroke:none"
             id="path94"
             inkscape:connector-curvature="0" /></g><g
           id="g96"
           transform="translate(43.3642,59.1052)"><path
             d="m 0,0 c 0.671,0.075 1.107,0.2 1.305,0.377 0.2,0.178 0.299,0.626 0.299,1.347 l 0,8.538 c 0,0.681 -0.098,1.126 -0.294,1.335 -0.196,0.21 -0.632,0.34 -1.31,0.39 l 0,0.355 9.698,0 0.063,-2.745 -0.464,0 C 9.143,10.442 8.911,10.99 8.602,11.239 8.293,11.487 7.604,11.612 6.534,11.612 l -2.486,0 C 3.78,11.612 3.615,11.566 3.552,11.476 3.49,11.385 3.458,11.215 3.458,10.965 l 0,-4.283 2.817,0 c 0.779,0 1.275,0.121 1.489,0.364 0.214,0.242 0.386,0.733 0.517,1.473 l 0.428,0 0,-4.433 -0.428,0 C 8.144,4.83 7.969,5.322 7.755,5.562 7.541,5.803 7.048,5.923 6.275,5.923 l -2.817,0 0,-4.752 C 3.458,0.79 3.573,0.565 3.802,0.497 4.031,0.428 4.717,0.394 5.86,0.394 c 1.238,0 2.152,0.142 2.74,0.426 0.59,0.284 1.119,0.973 1.588,2.066 l 0.509,0 L 9.868,-0.356 0,-0.356 0,0 z"
             style="fill:#2b2b2a;fill-opacity:1;fill-rule:nonzero;stroke:none"
             id="path98"
             inkscape:connector-curvature="0" /></g><g
           id="g100"
           transform="translate(60.7555,65.7592)"><path
             d="m 0,0 c 0.968,0.418 1.453,1.204 1.453,2.357 0,1.11 -0.434,1.868 -1.302,2.273 -0.464,0.218 -1.078,0.328 -1.845,0.328 -0.517,0 -0.833,-0.04 -0.949,-0.117 C -2.759,4.763 -2.817,4.58 -2.817,4.294 l 0,-4.725 C -1.504,-0.381 -0.565,-0.237 0,0 m -6.24,-6.654 c 0.701,0.068 1.138,0.211 1.31,0.429 0.172,0.218 0.259,0.724 0.259,1.52 l 0,8.313 c 0,0.675 -0.097,1.117 -0.29,1.326 -0.193,0.209 -0.619,0.342 -1.279,0.399 l 0,0.356 5.054,0 c 1.052,0 1.928,-0.141 2.63,-0.421 C 2.775,4.737 3.441,3.761 3.441,2.338 3.441,1.384 3.145,0.651 2.554,0.139 1.962,-0.373 1.158,-0.709 0.142,-0.871 l 3.762,-4.872 c 0.232,-0.298 0.464,-0.514 0.695,-0.651 0.232,-0.136 0.529,-0.223 0.892,-0.26 l 0,-0.356 -2.941,0 -4.566,5.913 -0.801,-0.046 0,-3.783 c 0,-0.71 0.102,-1.16 0.308,-1.35 0.204,-0.19 0.651,-0.316 1.341,-0.378 l 0,-0.356 -5.072,0 0,0.356 z"
             style="fill:#2b2b2a;fill-opacity:1;fill-rule:nonzero;stroke:none"
             id="path102"
             inkscape:connector-curvature="0" /></g><g
           id="g104"
           transform="translate(160.2725,60.0142)"><path
             d="m 0,0 c 0.63,0.381 0.945,1.112 0.945,2.193 0,1.075 -0.369,1.809 -1.105,2.203 -0.737,0.393 -1.676,0.59 -2.818,0.59 l -0.529,0 c -0.075,0 -0.189,0.003 -0.344,0.009 l 0,-4.78 c 0,-0.331 0.089,-0.545 0.267,-0.641 0.179,-0.097 0.592,-0.146 1.24,-0.146 0.933,0 1.714,0.191 2.344,0.572 m -0.588,6.055 c 0.772,0.375 1.159,1.048 1.159,2.019 0,1.145 -0.446,1.918 -1.337,2.319 -0.494,0.219 -1.243,0.329 -2.247,0.329 -0.38,0 -0.615,-0.035 -0.704,-0.104 -0.089,-0.069 -0.134,-0.257 -0.134,-0.563 l 0,-4.338 1.738,0.028 c 0.612,0.012 1.12,0.116 1.525,0.31 m -6.864,-6.964 c 0.733,0.044 1.207,0.163 1.423,0.359 0.216,0.196 0.324,0.651 0.324,1.365 l 0,8.538 c 0,0.706 -0.108,1.161 -0.324,1.364 -0.216,0.203 -0.69,0.323 -1.423,0.361 l 0,0.355 5.112,0 c 1.46,0 2.619,-0.246 3.478,-0.74 0.857,-0.495 1.287,-1.345 1.287,-2.552 0,-0.907 -0.3,-1.595 -0.9,-2.064 C 1.185,5.809 0.678,5.587 0,5.411 0.838,5.199 1.554,4.845 2.148,4.349 2.742,3.852 3.04,3.158 3.04,2.265 c 0,-1.498 -0.659,-2.528 -1.978,-3.09 -0.694,-0.294 -1.549,-0.44 -2.565,-0.44 l -5.949,0 0,0.356 z"
             style="fill:#2b2b2a;fill-opacity:1;fill-rule:nonzero;stroke:none"
             id="path106"
             inkscape:connector-curvature="0" /></g><g
           id="g108"
           transform="translate(172.8073,63.6787)"><path
             d="M 0,0 -2.092,5.286 -4.194,0 0,0 z m -7.862,-4.93 0,0.357 c 0.469,0.055 0.821,0.241 1.056,0.557 0.235,0.315 0.637,1.179 1.207,2.591 l 3.804,9.419 0.363,0 4.549,-10.881 c 0.302,-0.721 0.545,-1.166 0.726,-1.337 0.181,-0.171 0.486,-0.287 0.913,-0.349 l 0,-0.357 -4.642,0 0,0.357 c 0.534,0.049 0.877,0.11 1.032,0.181 0.154,0.072 0.232,0.247 0.232,0.527 0,0.094 -0.03,0.258 -0.089,0.495 -0.06,0.236 -0.143,0.485 -0.25,0.746 l -0.731,1.846 -4.811,0 C -4.977,-2.034 -5.26,-2.8 -5.352,-3.076 c -0.093,-0.277 -0.139,-0.497 -0.139,-0.658 0,-0.324 0.125,-0.547 0.374,-0.672 0.155,-0.075 0.445,-0.13 0.872,-0.167 l 0,-0.357 -3.617,0 z"
             style="fill:#2b2b2a;fill-opacity:1;fill-rule:nonzero;stroke:none"
             id="path110"
             inkscape:connector-curvature="0" /></g><g
           id="g112"
           transform="translate(178.0651,59.1052)"><path
             d="m 0,0 c 0.754,0.081 1.239,0.26 1.453,0.539 0.214,0.277 0.321,0.922 0.321,1.933 l 0,8.456 -0.25,0.31 C 1.256,11.568 1.029,11.773 0.842,11.851 0.655,11.929 0.374,11.974 0,11.987 l 0,0.355 3.115,0 7.047,-9.183 0,6.379 c 0,1.049 -0.148,1.732 -0.446,2.048 -0.196,0.205 -0.63,0.338 -1.301,0.401 l 0,0.355 4.287,0 0,-0.355 c -0.695,-0.076 -1.159,-0.253 -1.39,-0.535 -0.232,-0.281 -0.348,-0.924 -0.348,-1.93 l 0,-10.103 -0.312,0 -8.076,10.524 0,-7.471 C 2.576,1.423 2.721,0.74 3.013,0.421 3.203,0.215 3.628,0.075 4.288,0 l 0,-0.356 L 0,-0.356 0,0 z"
             style="fill:#2b2b2a;fill-opacity:1;fill-rule:nonzero;stroke:none"
             id="path114"
             inkscape:connector-curvature="0" /></g><g
           id="g116"
           transform="translate(191.2496,59.1052)"><path
             d="m 0,0 c 0.671,0.075 1.107,0.2 1.305,0.377 0.2,0.178 0.299,0.626 0.299,1.347 l 0,8.538 c 0,0.681 -0.098,1.126 -0.294,1.335 -0.196,0.21 -0.632,0.34 -1.31,0.39 l 0,0.355 9.698,0 0.063,-2.745 -0.464,0 C 9.143,10.442 8.911,10.99 8.602,11.239 8.293,11.487 7.604,11.612 6.534,11.612 l -2.486,0 C 3.78,11.612 3.615,11.566 3.552,11.476 3.49,11.385 3.458,11.215 3.458,10.965 l 0,-4.283 2.817,0 c 0.779,0 1.275,0.121 1.489,0.364 0.214,0.242 0.386,0.733 0.517,1.473 l 0.428,0 0,-4.433 -0.428,0 C 8.144,4.83 7.969,5.322 7.755,5.562 7.541,5.803 7.048,5.923 6.275,5.923 l -2.817,0 0,-4.752 C 3.458,0.79 3.573,0.565 3.802,0.497 4.031,0.428 4.717,0.394 5.86,0.394 c 1.238,0 2.152,0.142 2.74,0.426 0.59,0.284 1.119,0.973 1.588,2.066 l 0.509,0 L 9.868,-0.356 0,-0.356 0,0 z"
             style="fill:#2b2b2a;fill-opacity:1;fill-rule:nonzero;stroke:none"
             id="path118"
             inkscape:connector-curvature="0" /></g><g
           id="g120"
           transform="translate(203.3725,62.6103)"><path
             d="m 0,0 c 0.309,-0.862 0.67,-1.55 1.085,-2.062 0.725,-0.893 1.624,-1.34 2.698,-1.34 0.581,0 1.084,0.194 1.509,0.581 0.423,0.388 0.636,0.928 0.636,1.621 0,0.625 -0.214,1.169 -0.64,1.631 C 5.009,0.725 4.421,1.165 3.526,1.753 L 1.968,2.774 C 1.5,3.086 1.126,3.402 0.846,3.721 0.33,4.327 0.071,4.995 0.071,5.726 c 0,0.969 0.306,1.775 0.918,2.418 0.612,0.644 1.424,0.965 2.434,0.965 0.416,0 0.916,-0.107 1.502,-0.323 0.585,-0.216 0.92,-0.323 1.003,-0.323 0.225,0 0.381,0.056 0.468,0.168 0.086,0.113 0.153,0.272 0.2,0.478 l 0.374,0 0.402,-4.086 -0.437,0 C 6.638,6.254 6.161,7.113 5.504,7.601 4.848,8.088 4.198,8.332 3.556,8.332 3.057,8.332 2.622,8.177 2.25,7.868 1.879,7.558 1.693,7.129 1.693,6.579 1.693,6.085 1.836,5.663 2.121,5.314 2.405,4.958 2.847,4.586 3.447,4.199 L 5.05,3.158 C 6.054,2.508 6.762,1.912 7.173,1.368 7.579,0.818 7.782,0.169 7.782,-0.581 7.782,-1.587 7.421,-2.427 6.699,-3.102 5.977,-3.777 5.054,-4.114 3.931,-4.114 3.366,-4.114 2.776,-4.002 2.162,-3.777 1.546,-3.552 1.194,-3.44 1.105,-3.44 0.891,-3.44 0.747,-3.508 0.673,-3.646 0.599,-3.783 0.55,-3.93 0.526,-4.086 l -0.402,0 L -0.419,0 0,0 z"
             style="fill:#2b2b2a;fill-opacity:1;fill-rule:nonzero;stroke:none"
             id="path122"
             inkscape:connector-curvature="0" /></g><g
           id="g124"
           transform="translate(212.5542,59.1052)"><path
             d="m 0,0 c 0.671,0.075 1.107,0.2 1.305,0.377 0.2,0.178 0.299,0.626 0.299,1.347 l 0,8.538 c 0,0.681 -0.098,1.126 -0.294,1.335 -0.196,0.21 -0.632,0.34 -1.31,0.39 l 0,0.355 9.698,0 0.063,-2.745 -0.464,0 C 9.143,10.442 8.911,10.99 8.602,11.239 8.293,11.487 7.604,11.612 6.534,11.612 l -2.486,0 C 3.78,11.612 3.615,11.566 3.552,11.476 3.49,11.385 3.458,11.215 3.458,10.965 l 0,-4.283 2.817,0 c 0.779,0 1.275,0.121 1.489,0.364 0.214,0.242 0.386,0.733 0.517,1.473 l 0.428,0 0,-4.433 -0.428,0 C 8.144,4.83 7.969,5.322 7.755,5.562 7.541,5.803 7.048,5.923 6.275,5.923 l -2.817,0 0,-4.752 C 3.458,0.79 3.573,0.565 3.802,0.497 4.031,0.428 4.717,0.394 5.86,0.394 c 1.238,0 2.152,0.142 2.74,0.426 0.59,0.284 1.119,0.973 1.588,2.066 l 0.509,0 L 9.868,-0.356 0,-0.356 0,0 z"
             style="fill:#2b2b2a;fill-opacity:1;fill-rule:nonzero;stroke:none"
             id="path126"
             inkscape:connector-curvature="0" /></g><g
           id="g128"
           transform="translate(116.1077,173.9442)"><path
             d="m 0,0 c 0,0 -3,-6.75 -3,-9.5 0,-2.75 1.5,-3.25 1.5,-3.25 L 0,-16 l 2.882,-5.75 1.868,0 1.25,-3 5.25,-4.25 -1.055,-4.5 -3.945,-4 -3.368,-1 L -0.25,-54.89 -3,-56.25 -3,-71 -5.5,-73.75 c 0,0 -7.75,-9 -8,-9.75 -0.25,-0.75 0,-6.5 0,-6.5 l -4,0 -3.5,2.5 -13.25,0.75 -5.75,-6.75 8.25,-3.5 9.518,-9.5 14.482,-1.25 6.75,-10.75 0,-10.75 -3.5,-4 0.25,-9.5 2.75,-2.25 1.25,-5.75 8.75,-1.25 1.695,-5.25 7.055,5.25 -3.25,5.75 -6.25,-0.25 0.25,9.5 4,0.25 2.5,0.75 0.5,11.75 2.25,1.25 0,5 -4.25,9.75 -2.805,0 -7.313,10.5 L 0,-96 l 0.5,4 5.25,1.5 -0.25,2.5 -2.618,3 3.618,3.75 0.75,5 5.5,2.75 0.25,9 7.5,11.75 0,8 6,5.25 0,10 -5.75,5.5 -3.5,0.5 -3.75,12.5 -3.305,0.75 0,6.75 L 7,0 0,0 z"
             style="fill:#b4b3b3;fill-opacity:1;fill-rule:nonzero;stroke:none"
             id="path130"
             inkscape:connector-curvature="0" /></g><g
           id="g132"
           transform="translate(76.1077,84.4442)"><path
             d="m 0,0 -3.5,5.75 -5.75,0 -4.5,0 0,-2.875 L -8.5,1.5 -3.25,-2.25 0,0 z"
             style="fill:#8a8989;fill-opacity:1;fill-rule:nonzero;stroke:none"
             id="path134"
             inkscape:connector-curvature="0" /></g><g
           id="g136"
           transform="translate(136.8577,149.9442)"><path
             d="m 0,0 -3.5,0.5 -3.75,12.5 -3.305,0.75 0,6.75 -3.195,3.5 -7,0 c 0,0 -0.399,-0.899 -0.904,-2.169 l 6.27,0 3.195,-3.5 0,-6.75 3.305,-0.75 3.75,-12.5 3.5,-0.5 5.75,-5.5 0,-9.261 1.634,1.43 0,10 L 0,0 z"
             style="fill:#737373;fill-opacity:1;fill-rule:nonzero;stroke:none"
             id="path138"
             inkscape:connector-curvature="0" /></g><g
           id="g140"
           transform="translate(130.1077,27.6942)"><path
             d="M 0,0 -3.772,-0.151 -3.884,-4.419 2.357,-4.169 0,0 z"
             style="fill:#737373;fill-opacity:1;fill-rule:nonzero;stroke:none"
             id="path142"
             inkscape:connector-curvature="0" /></g><g
           id="g144"
           transform="translate(84.2238,83.0252)"><path
             d="m 0,0 13.25,-0.75 3.5,-2.5 4,0 c 0,0 -0.25,5.75 0,6.5 0.25,0.75 8,9.75 8,9.75 l 2.5,2.75 0,14.75 2.75,1.36 3.132,16.39 3.368,1 3.945,4 1.055,4.5 -2.81,2.275 -0.611,-2.606 -3.945,-4 -3.368,-1 -3.132,-16.39 -2.75,-1.36 0,-14.75 -2.5,-2.75 c 0,0 -7.75,-9 -8,-9.75 -0.25,-0.75 0,-6.5 0,-6.5 l -4,0 -3.5,2.5 -13.25,0.75 -5.75,-6.75 4.347,-1.844 L 0,0 z"
             style="fill:#737373;fill-opacity:1;fill-rule:nonzero;stroke:none"
             id="path146"
             inkscape:connector-curvature="0" /></g><g
           id="g148"
           transform="translate(113.9738,36.5252)"><path
             d="m 0,0 3.5,4 0,10.75 -2.366,3.768 0,-10.349 -3.5,-4 0.25,-9.5 L 0.19,-7.218 0,0 z"
             style="fill:#737373;fill-opacity:1;fill-rule:nonzero;stroke:none"
             id="path150"
             inkscape:connector-curvature="0" /></g><g
           id="g152"
           transform="translate(113.1077,117.6942)"><path
             d="M 0,0 0,-1.361 1.116,-0.809 1.403,0.694 0,0 z"
             style="fill:#737373;fill-opacity:1;fill-rule:nonzero;stroke:none"
             id="path154"
             inkscape:connector-curvature="0" /></g><g
           id="g156"
           transform="translate(126.3027,65.6942)"><path
             d="m 0,0 -7.313,10.5 -2.882,1.75 0.279,2.235 -1.413,-0.404 -0.5,-4 2.882,-1.75 7.313,-10.5 2.805,0 4.25,-9.75 0,-3.739 1.634,0.908 0,5 L 2.805,0 0,0 z"
             style="fill:#737373;fill-opacity:1;fill-rule:nonzero;stroke:none"
             id="path158"
             inkscape:connector-curvature="0" /></g><g
           id="g160"
           transform="translate(72.803,82.2333)"><path
             d="m 0,0 0.305,0.211 -3.5,5.75 -5.75,0 -1.5,0 0,-0.875 5.25,-1.375 L 0,0 z"
             style="fill:#737373;fill-opacity:1;fill-rule:nonzero;stroke:none"
             id="path162"
             inkscape:connector-curvature="0" /></g><g
           id="g164"
           transform="translate(113.1434,221.4408)"><path
             d="m 0,0 0,-1.349 c -1.976,-0.026 -3.322,-0.156 -4.038,-0.391 -1.26,-0.418 -1.887,-1.265 -1.887,-2.545 0,-0.653 0.223,-1.567 0.673,-2.741 0.45,-1.174 1.286,-3.124 2.511,-5.849 l 12.357,-27.481 11.217,29.749 c 0.496,1.316 0.871,2.43 1.128,3.345 0.255,0.913 0.384,1.658 0.384,2.232 0,1.541 -0.653,2.584 -1.961,3.133 -0.771,0.313 -2.039,0.497 -3.809,0.548 l 0,1.349 16.148,0 0,-1.349 C 31.051,-1.579 29.816,-2.029 29.02,-2.698 27.812,-3.7 26.618,-5.717 25.438,-8.75 l -17.483,-44.402 -1.188,0 -19.51,43.388 c -1.644,3.68 -2.961,5.971 -3.949,6.872 -0.991,0.9 -2.437,1.414 -4.339,1.543 L -21.031,0 0,0 z"
             style="fill:#2b2b2a;fill-opacity:1;fill-rule:nonzero;stroke:none"
             id="path166"
             inkscape:connector-curvature="0" /></g></g></g></g></svg>